<?xml version="1.0" encoding="UTF-8"?>
<svg id="Layer_1" data-name="Layer 1" xmlns="http://www.w3.org/2000/svg" viewBox="0 0 300 300">
  <path d="M150,299.99C67.26,299.99-.06,232.67-.06,149.93S67.26-.13,150-.13s150.06,67.32,150.06,150.06-67.32,150.06-150.06,150.06ZM150,16.55c-73.55,0-133.38,59.84-133.38,133.38s59.84,133.38,133.38,133.38,133.38-59.84,133.38-133.38S223.55,16.55,150,16.55Z"/>
  <path d="M150,299.99c-56.87,0-82.77-77.79-82.77-150.06,0-38.32,6.89-74.18,19.39-100.96C101.62,16.85,123.53-.13,150-.13v16.67c-43.39,0-66.09,67.1-66.09,133.38s22.7,133.38,66.09,133.38v16.67Z"/>
  <path d="M153.76,300.13c-1.44,0-2.9-.05-4.37-.16l-7.73-.56.76-298.01,8.19-1.49c28.36,2.09,52.02,24.3,66.62,62.54,12.36,32.37,17.73,74.45,14.73,115.46-2.48,33.81-10.62,64.14-22.94,85.4-14,24.17-33.04,36.83-55.26,36.83ZM158.34,18.17v265.02c36.44-4.25,53.49-58.66,56.99-106.51,5.09-69.48-15.28-146.02-56.99-158.51Z"/>
  <rect x="28.11" y="69.26" width="245.89" height="16.67"/>
  <rect x="8.32" y="141.59" width="283.4" height="16.67"/>
  <rect x="28.11" y="213.93" width="243.77" height="16.67"/>
</svg>