<?xml version="1.0" encoding="UTF-8"?>
<svg id="Layer_1" data-name="Layer 1" xmlns="http://www.w3.org/2000/svg" viewBox="0 0 300 300">
  <path d="M150.53,177.14c-31.99,0-58.02-26.03-58.02-58.02s26.03-58.02,58.02-58.02,58.02,26.03,58.02,58.02-26.03,58.02-58.02,58.02ZM150.53,88.13c-17.09,0-31,13.91-31,31s13.91,31,31,31,31-13.91,31-31-13.91-31-31-31Z"/>
  <path d="M150.48,300.13c-.14,0-.29,0-.43,0-7.56-.12-14.84-3.38-19.96-8.94h0c-36.19-39.26-65.54-89.93-87.23-150.6-8.95-25.03-8.78-51.97.48-75.87C58.51,25.54,94.17,3.93,149.32.51l.54-.03h.54c56.68,1.04,92.86,24.23,107.53,68.92,8.09,24.66,7.6,52.36-1.39,78-20.73,59.16-48.96,106.41-86.29,144.43-5.18,5.28-12.36,8.29-19.76,8.29ZM149.96,272.87c.06.06.21.23.52.23.3,0,.43-.13.48-.19,34.49-35.13,60.68-79.11,80.08-134.44,7.03-20.06,7.46-41.6,1.21-60.64-10.8-32.91-37.56-49.37-81.8-50.31-43.98,2.84-70.77,18.2-81.91,46.96-6.91,17.85-6.99,38.1-.23,57.01,20.46,57.24,47.94,104.81,81.65,141.38h0Z"/>
</svg>